<svg id="图层_1" data-name="图层 1" xmlns="http://www.w3.org/2000/svg" viewBox="0 0 350.31 48.8"><defs><style>.cls-1{fill:#fc0;}.cls-2{fill:red;}.cls-3{font-size:20px;font-family:MicrosoftYaHei-Bold, Microsoft YaHei;font-weight:700;letter-spacing:0.04em;}.cls-3,.cls-4{fill:#fff;}.cls-4{font-size:14px;font-family:ArialMT, Arial;letter-spacing:0em;}.cls-5{letter-spacing:-0.01em;}.cls-6{letter-spacing:-0.03em;}.cls-7{letter-spacing:0.01em;}</style></defs><title>logo白色</title><path d="M27.06,12.34a6.57,6.57,0,0,1,1,.88c1.31,1.29,2.66,2.5,4,3.69a13.44,13.44,0,0,0,2,1.82c.67.4,2.15.53,1.88-.73-.11-.48-.82-1-1.22-1.42-2.67-2.64-5.3-5.3-7.91-7.91-.44-.45-.83-1-1.3-1.36a2.65,2.65,0,0,0-1.88-.76,2.54,2.54,0,0,0-2,1.67c-.14.29-.27.73-.45.78-.57.16-1.29-.82-1.09-1.48.06-.21.44-.32.63-.58a1.68,1.68,0,0,0,.21-.36A2,2,0,0,0,19.38,3.7h-.51a1.82,1.82,0,0,0-1.42,2.79c.22.36.73.65.79,1a2,2,0,0,1-.43,1.18.76.76,0,0,1-1.09.21,1.88,1.88,0,0,0-.15-.63,3.9,3.9,0,0,0-1.94-1.73c-1.25-.37-2.09.78-2.7,1.39-2.82,2.83-5.58,5.68-8.45,8.55-.45.44-1.25,1-1.24,1.6a1.09,1.09,0,0,0,.93,1,2.25,2.25,0,0,0,1.61-.84c2.14-1.93,4-3.72,6.21-5.49.35-.28,1.4-1.32,1.49-.27,0,.28-.3.47-.49.63-1,.9-2,1.74-3,2.67a5.22,5.22,0,0,0-1.09,1.18c-.15.37-.22,1.28.15,1.43.61.24,1.65-.6,1.91-.82,1.1-.9,1.88-1.8,2.88-2.73.43-.39.93-1.25,1.67-.91.23,1.15-1.65,1.88-.67,2.79.88-.32,1.29-1.16,1.79-1.82a1.19,1.19,0,0,1,.67-.54c.34,1.07-.67,1.68-.7,2.57a3.45,3.45,0,0,0,1.27.06h1.4c0,1.84,0,3.76,0,5.55a10.09,10.09,0,0,0-1.91,1.15,8.08,8.08,0,0,1-1.12-.85c-.32-.25-.89-.61-.94-1.06-.11-.89.93-1.24,1.51-1.63A2,2,0,0,0,15.87,19c-.26-.69-1.31-.66-2-.45a2.44,2.44,0,0,0-1.57,1.73c-.6,2.31.91,3.82,2.12,4.66a.24.24,0,0,1,0,.1c-.25.13-.43.33-.67.48a.34.34,0,0,1-.12.12,9.73,9.73,0,0,0-.79.61.77.77,0,0,1-.18.18c-.14,0-.19.17-.3.24a.28.28,0,0,1-.12.12,6,6,0,0,0-.46.4,1,1,0,0,1-.21.21.13.13,0,0,0-.09.09.77.77,0,0,1-.18.18A18.1,18.1,0,0,0,9.87,29a.54.54,0,0,1-.15.15c0,.07-.1.08-.12.15a.77.77,0,0,1-.18.18v0a.62.62,0,0,1-.18.18,5.12,5.12,0,0,0-.4.52.77.77,0,0,1-.18.18,32.86,32.86,0,0,0-2.82,4.24c-.06.08-.09.17-.18.22s-.15.25-.27.18L5.3,34.7c-.07,0,0-.1,0-.15.15-2.3,1.39-3.51,2.39-5a.34.34,0,0,1,.12-.12,6,6,0,0,0,1.06-1.94v-.18a.16.16,0,0,0-.12,0,3.16,3.16,0,0,0-1,.76.77.77,0,0,1-.18.18c0,.09-.14.12-.18.21a.54.54,0,0,1-.15.15v0a.47.47,0,0,1-.19.18,14.63,14.63,0,0,0-3.54,9.43c.06,0,0,.11,0,.15a9,9,0,0,0,0,.91c.09,0,0,.15.06.24a3.58,3.58,0,0,0,.15.85.18.18,0,0,1,.06.18,7.32,7.32,0,0,0,1.67,2.91,1,1,0,0,1,.21.21,4.26,4.26,0,0,0,.7.64.54.54,0,0,1,.15.15,8.69,8.69,0,0,0,1.27.88c.08,0,.1.05.12.09a13.82,13.82,0,0,0,6,1.85c.06,0,.18,0,.19,0,.35,0,.67.07,1,.09,0,0,.18,0,.18,0a9.08,9.08,0,0,0,1.27,0s.11,0,.12,0h.88c0-.05.23-.05.24,0h.82c.05,0,.08,0,.09,0,.19,1.06.06,2.76.24,3.82.06.3.3.84.58.85s.35-.38.55-.58c.07-1.38,0-2.78.15-4.18h.79s.16,0,.15,0a25.47,25.47,0,0,0,8.06-2c0-.08.12-.1.18-.15.24-.22.55-.38.64-.76-.08-.19-.56-.13-.76-.09,0,.07-.11,0-.15,0a48.33,48.33,0,0,1-8.34,1.33c0,.07-.11,0-.15,0h-.36a2.4,2.4,0,0,1,0-.61,10.13,10.13,0,0,0,1.27-.49c2.2-.47,4.33-1,6.52-1.51q0-.07.15-.06c.52-.17,1.3-.08,1.42-.64,0-.07.05-.09.09-.12a2,2,0,0,1,1.06-.85c.2,0,.43,0,.64,0a7.64,7.64,0,0,0,3.18-1,.34.34,0,0,1,.12-.12c.22-.34.86-1.29.12-1.48,0,.06-.12,0-.18,0a2.12,2.12,0,0,0-.75.18s-.06.07-.13.06c-3,.82-6.18,1.51-9.33,2.12a5.18,5.18,0,0,0-1.3.27,3.47,3.47,0,0,0-1.85-2.33,7.2,7.2,0,0,1-.85-.39c1.68-.5,3.18-1.33,3.15-3.43-.64.19-1.42.52-2.12.76-.3.52-.49,1.14-1.27,1.18,0-.3.05-.53,0-.85-.67.14-1.24.38-1.91.52a2.79,2.79,0,0,1,0,.66c-.47.13-.66-.41-1-.45s-.51.15-.73.21-.5.12-.76.21a5.19,5.19,0,0,0,2.4,1.25c-1.34.64-2.69,1.43-2.61,3.39a1.87,1.87,0,0,0-.54,0c-.07,0-.2,0-.22,0-2.25-.21-4.23-.68-5.51-1.85a.23.23,0,0,1-.12-.12,5.06,5.06,0,0,1-1.85-3.52c-.07,0,0-.12,0-.18v-.09c0-.05,0-.18,0-.18a8.05,8.05,0,0,1,2-4.79.23.23,0,0,1,.12-.12,6.92,6.92,0,0,1,.6-.61,1.44,1.44,0,0,1,.28-.27l1-.88a.84.84,0,0,1,.21-.21h0a.77.77,0,0,1,.18-.18c.68-.52,1.33-1.08,2-1.58a.34.34,0,0,1,.12-.12c.41-.24.77-.52,1.15-.79,0-.06.09-.06.13-.09a4.86,4.86,0,0,0,.54-.33c0-.06.08-.06.12-.09a1.44,1.44,0,0,0,.49-.34c.17,0,.21.09.36.1a4.72,4.72,0,0,0-2.45,2.18,2.75,2.75,0,0,0,1,3.15,10.47,10.47,0,0,0,2,1.15c-1.27.37-2.27,1-2.31,2.61.71-.2,1.46-.17,2.09-.4.32-.11.51-.47.85-.48s0,.25.16.24a29.64,29.64,0,0,0,4.48-1.3c-.32-.32-.84-.44-1.18-.73a6.59,6.59,0,0,0,2-1,2.64,2.64,0,0,0,1.18-1.85c.14-2-1.57-2.95-2.79-3.61,2.05-.7,4.2-1.7,4.82-3.78,0,0,0,0,.06,0A7.5,7.5,0,0,1,31,23.82a.54.54,0,0,1,.15.15s0,.05.06.07a.36.36,0,0,1,.15.15s0,0,0,.06a.36.36,0,0,1,.15.15c.24.47.72.81.58,1.58,0,0,0,.15,0,.15a6.52,6.52,0,0,1-.43,1.15c0,.07,0,.09-.09.12A8.85,8.85,0,0,1,30,29.34a1.14,1.14,0,0,1-.25.24A17.33,17.33,0,0,1,27.78,31a.29.29,0,0,1-.18.12,31.76,31.76,0,0,1-3.06,1.42q0,.08-.12.06a38.93,38.93,0,0,1-6,1.85.28.28,0,0,1-.21.06c-1.66.3-3.57.78-5.28,1.12-1.1.23-2.25.27-2.66,1.12,0,0,0,.07.06.13a1.19,1.19,0,0,0,1.21.21c0-.06,0-.07.12-.06.5-.13,1-.29,1.52-.43s1-.46,1.48-.27c.1.59-.61.61-.82,1a1.65,1.65,0,0,0,1.18,0c1.2-.24,2.4-.51,3.46-.82,0,0,.06,0,.12,0a49.62,49.62,0,0,0,6.76-2.27c0-.06.05-.07.12-.06a22.79,22.79,0,0,0,6.64-3.88.18.18,0,0,1,.12-.12,1.14,1.14,0,0,0,.24-.25.77.77,0,0,1,.18-.18,5.88,5.88,0,0,0,1.37-2.54c0-.08,0-.15.06-.15a6,6,0,0,0,.18-2.16c-.07,0,0-.12,0-.18a4.15,4.15,0,0,0-.85-2.06.54.54,0,0,1-.15-.15c0-.06,0-.06-.06-.09a1.42,1.42,0,0,1-.3-.3c-.1,0-.1-.15-.22-.16a.52.52,0,0,1-.18-.18,7.49,7.49,0,0,0-3.82-1.6s-.11,0-.12,0A5,5,0,0,0,27.51,20c-.05,0-.18,0-.18,0a8.53,8.53,0,0,0-1,0c-.21,0-.42-.51-.64-.76a2.82,2.82,0,0,0-1.09-.79c-.67-.23-2,.1-2,.82s.85.77,1.21,1.18a22.94,22.94,0,0,0-2.66.76c0,.05-.06.07-.13.06a3.54,3.54,0,0,0-.69.27c-.08-1.45,0-3.19-.06-4.55A17.81,17.81,0,0,0,22.66,17c.08-1-.83-1.59-.7-2.54.82,0,1,.89,1.46,1.45.27.37.66.83,1.27.61.23-.91-.67-1.37-.91-2.06a.89.89,0,0,1,0-.73,3,3,0,0,1,1.64,1c1.17,1,2.37,2,3.52,3.06.23.22.47.54.72.61s.84,0,.91-.27-.19-.73-.33-1A14.57,14.57,0,0,0,27,13.76a4.72,4.72,0,0,1-1.28-1.39C26.14,11.84,26.69,12.1,27.06,12.34ZM20.3,40.83c.72,0,1.19.27,1.3.9-.42.06-.85.1-1.24.19a0,0,0,0,0,0,0A4.15,4.15,0,0,1,20.3,40.83Zm-1.7,4.33a1.6,1.6,0,0,1,0,.57h-.06s-.16,0-.15,0a1.24,1.24,0,0,1-.67-.21c.08-.26.44-.23.7-.3A.17.17,0,0,1,18.6,45.16ZM18.36,41a6.8,6.8,0,0,1,0,1.12c-.37.07-.8.06-1.15.15h0C17.23,41.48,17.49,40.79,18.36,41ZM16.75,29.67a1.42,1.42,0,0,1,1.34-2c.12.71,0,1.85.09,2.7A1.16,1.16,0,0,1,16.75,29.67ZM22,29c-.05.86-.78,1.25-1.57,1.3,0-.85,0-1.78,0-2.58C21.43,27.63,22,28.08,22,29Zm0-5.79c0-.06.06-.07.13-.06l1.15-.4a6.93,6.93,0,0,1-1,.79c-.54.36-1,.8-1.76.7a.43.43,0,0,1-.15-.37C20.87,23.62,21.39,23.36,22,23.16Z" transform="translate(-1.94 -3.36)"/><path class="cls-1" d="M35.67,17.67c.28,1.26-1.21,1.12-1.88.73a14.61,14.61,0,0,1-2-1.82c-1.3-1.2-2.66-2.41-4-3.7a6.14,6.14,0,0,0-1-.88c-.36-.23-.92-.5-1.33,0a4.69,4.69,0,0,0,1.27,1.39A14.77,14.77,0,0,1,30,16.79c.15.25.42.65.34,1s-.58.36-.91.27-.49-.39-.73-.6c-1.14-1-2.35-2.1-3.51-3.07a3.12,3.12,0,0,0-1.64-1,.82.82,0,0,0,0,.73c.23.69,1.13,1.15.91,2.06-.62.22-1-.24-1.28-.6-.42-.57-.64-1.46-1.45-1.46-.13,1,.77,1.55.7,2.55a19.71,19.71,0,0,1-2.46.06c.07,1.36,0,3.1.06,4.54,0,.79,0,1.39,0,2.25,0,.19.08.26.15.36a2.4,2.4,0,0,0,1.76-.7,5.54,5.54,0,0,0,1-.78c.3-.34,1-.73,1.06-1.34,0-.39-.27-.64-.54-.88-.37-.41-1.3-.33-1.21-1.18s1.36-1,2-.82a3,3,0,0,1,1.09.79c.21.25.42.8.63.76,0,.27.23.58.31,1a9.53,9.53,0,0,1,0,1.18s0,0-.06,0c-.63,2.09-2.78,3.09-4.82,3.79,1.22.65,2.92,1.6,2.79,3.6a2.65,2.65,0,0,1-1.19,1.85,6.26,6.26,0,0,1-2,1c.35.29.87.41,1.19.73a29.43,29.43,0,0,1-4.49,1.3c-.14,0,0-.29-.15-.24s-.53.37-.85.49c-.63.22-1.39.2-2.09.39,0-1.6,1-2.24,2.3-2.61A10,10,0,0,1,15,31a2.77,2.77,0,0,1-1-3.15,4.74,4.74,0,0,1,2.46-2.18c-.15,0-.2-.11-.37-.09a8,8,0,0,1-1.91-.91s0,0-.06,0a.14.14,0,0,0,0-.09c-1.21-.85-2.71-2.36-2.12-4.67a2.47,2.47,0,0,1,1.58-1.73c.71-.2,1.76-.23,2,.46a2,2,0,0,1-.06,1.12c-.59.39-1.62.75-1.52,1.64.05.45.62.8.94,1.06a8.83,8.83,0,0,0,1.12.84c.4.13.87.88,1.4.85.7,0,.48-1.15.51-2,.07-1.78,0-3.7,0-5.54H16.61a3.44,3.44,0,0,1-1.27-.06c0-.9,1-1.5.69-2.58a1.12,1.12,0,0,0-.66.55c-.51.65-.92,1.49-1.79,1.81-1-.9.89-1.64.66-2.78-.73-.35-1.24.51-1.66.91-1,.92-1.78,1.82-2.88,2.72-.27.22-1.31,1.06-1.91.82-.37-.15-.3-1.06-.15-1.42a5,5,0,0,1,1.09-1.19c.94-.93,2-1.77,3-2.66.18-.17.47-.35.48-.64-.08-1.05-1.13,0-1.48.27-2.22,1.77-4.08,3.57-6.21,5.49-.42.37-.92.91-1.61.85a1.11,1.11,0,0,1-.94-1c0-.57.8-1.16,1.24-1.61,2.87-2.87,5.63-5.72,8.46-8.54.61-.62,1.44-1.76,2.7-1.4a4,4,0,0,1,1.94,1.73,1.94,1.94,0,0,1,.15.64.76.76,0,0,0,1.09-.22,2,2,0,0,0,.42-1.18c-.05-.32-.56-.61-.79-1a1.83,1.83,0,0,1,1.43-2.79h.51a2,2,0,0,1,1.55,2.88,2,2,0,0,1-.21.37c-.2.25-.58.36-.64.57-.19.66.53,1.64,1.09,1.49.19-.05.31-.5.46-.79a2.54,2.54,0,0,1,2-1.67A2.69,2.69,0,0,1,25.25,7c.46.4.85.92,1.3,1.36,2.6,2.61,5.24,5.27,7.91,7.91C34.86,16.64,35.56,17.19,35.67,17.67Zm-14,10.94c0-.87-.54-1.32-1.55-1.27-.07.79,0,1.72,0,2.57C20.89,29.86,21.62,29.47,21.67,28.61ZM17.88,30c-.08-.84,0-2-.09-2.69a1.41,1.41,0,0,0-1.33,2A1.14,1.14,0,0,0,17.88,30Z" transform="translate(-1.94 -3.36)"/><path class="cls-1" d="M23.34,35.06c0,2.1-1.47,2.94-3.16,3.43a6.42,6.42,0,0,0,.85.39,3.44,3.44,0,0,1,1.85,2.34,3.06,3.06,0,0,1-1.6,3.12,11.33,11.33,0,0,1-1.28.48c0,.19,0,.47,0,.61C20,46,20,46.5,20,47.06c-.1,1.4-.08,2.8-.15,4.19-.2.19-.21.59-.54.57s-.53-.55-.58-.85c-.18-1.06-.05-2.76-.24-3.81,0,0,0,0-.09,0a6.53,6.53,0,0,0-.06-1.76h0a2.31,2.31,0,0,0,0-.58.26.26,0,0,0-.16,0c-1.42-.48-2.61-1.2-2.81-2.91-.08-1.95,1.27-2.74,2.6-3.39a5.24,5.24,0,0,1-2.39-1.24c.25-.09.49-.14.76-.22a2.64,2.64,0,0,1,.72-.21c.35,0,.53.58,1,.46a2.9,2.9,0,0,0,0-.67c.67-.14,1.25-.37,1.91-.52,0,.32,0,.55,0,.85.78,0,1-.66,1.28-1.18C21.91,35.58,22.69,35.26,23.34,35.06Zm-3.28,8a1.28,1.28,0,0,0,1.25-1.66c-.11-.63-.58-.9-1.31-.91a4.15,4.15,0,0,0,0,1.12s0,0,0,0A7.32,7.32,0,0,0,20.06,43.06Zm-1.91.16c0-.53,0-1-.06-1.46a6.83,6.83,0,0,0,0-1.12c-.87-.18-1.13.5-1.15,1.27h0A1.29,1.29,0,0,0,18.15,43.22Z" transform="translate(-1.94 -3.36)"/><path class="cls-2" d="M34.58,38.55c.73.19.09,1.14-.12,1.48a.23.23,0,0,0-.12.12,7.64,7.64,0,0,1-3.18,1,3.42,3.42,0,0,0-.64,0,1.88,1.88,0,0,0-1.06.84c-.05,0-.1,0-.09.12-.13.57-.9.48-1.43.64a.18.18,0,0,0-.15.06c-2.19.49-4.31,1-6.51,1.52a3.06,3.06,0,0,0,1.6-3.12,5.28,5.28,0,0,1,1.31-.28c3.15-.6,6.37-1.3,9.33-2.12q.1,0,.12-.06a2.42,2.42,0,0,1,.76-.18C34.45,38.56,34.58,38.62,34.58,38.55Z" transform="translate(-1.94 -3.36)"/><path class="cls-2" d="M34,24.55a5.75,5.75,0,0,1-.18,2.15c-.06,0-.06.07-.06.15A6,6,0,0,1,32.4,29.4a.39.39,0,0,0-.18.18,1.14,1.14,0,0,1-.25.24.34.34,0,0,0-.12.12,22.61,22.61,0,0,1-6.63,3.88c-.07,0-.12,0-.13.06a46.48,46.48,0,0,1-6.75,2.27c-.06,0-.07,0-.13,0-1.05.31-2.26.58-3.45.82a1.65,1.65,0,0,1-1.18,0c.2-.38.92-.4.82-1-.52-.19-1,.14-1.49.28l-1.51.42c-.07,0-.12,0-.13.06a1.19,1.19,0,0,1-1.21-.21.12.12,0,0,0-.06-.12c.41-.86,1.57-.9,2.67-1.12,1.7-.35,3.61-.82,5.27-1.13a.22.22,0,0,0,.21-.06,39.35,39.35,0,0,0,6-1.84c.07,0,.12,0,.13-.07a32.92,32.92,0,0,0,3.06-1.42.29.29,0,0,0,.18-.12,18.3,18.3,0,0,0,1.94-1.43.91.91,0,0,0,.24-.24,8.2,8.2,0,0,0,1.61-1.94s.09,0,.09-.12a5.8,5.8,0,0,0,.42-1.15c.07,0,0-.11,0-.15.15-.77-.33-1.11-.57-1.58a.54.54,0,0,0-.15-.15s0,0,0-.06a.36.36,0,0,0-.15-.15s-.05,0-.06-.06a.36.36,0,0,0-.15-.15,7.44,7.44,0,0,0-4.36-1.64,9.53,9.53,0,0,0,0-1.18c-.08-.39-.34-.7-.31-1a7,7,0,0,1,1,0c0,.06.13,0,.19,0a5,5,0,0,1,1.06.09s.07,0,.12,0a7.45,7.45,0,0,1,3.82,1.61.52.52,0,0,0,.18.18c.11,0,.12.12.21.15a2.13,2.13,0,0,0,.3.3s.07,0,.06.09a.33.33,0,0,0,.16.15A4.32,4.32,0,0,1,34,24.37C34,24.42,33.94,24.54,34,24.55Z" transform="translate(-1.94 -3.36)"/><path class="cls-2" d="M29.79,44.13c-.08.38-.39.53-.63.75-.06,0-.16.07-.19.15a25.4,25.4,0,0,1-8.06,2s-.16,0-.15,0H20C20,46.5,20,46,20,45.43h.37s.15,0,.15,0a49.34,49.34,0,0,0,8.33-1.34c.05,0,.16,0,.15,0C29.24,44,29.72,43.93,29.79,44.13Z" transform="translate(-1.94 -3.36)"/><path class="cls-2" d="M23.46,20.15c.27.24.56.49.54.88,0,.61-.76,1-1.06,1.34l-1.15.39q-.11,0-.12.06c-.58.2-1.09.46-1.67.67,0-.86,0-1.46,0-2.25a4.84,4.84,0,0,1,.7-.27q.1,0,.12-.06A26,26,0,0,1,23.46,20.15Z" transform="translate(-1.94 -3.36)"/><path class="cls-2" d="M21.31,41.4a1.28,1.28,0,0,1-1.25,1.66,7.32,7.32,0,0,1,0-1.48A12.12,12.12,0,0,1,21.31,41.4Z" transform="translate(-1.94 -3.36)"/><path class="cls-2" d="M18.31,45.4a6.53,6.53,0,0,1,.06,1.76h-.82s-.23,0-.24,0h-.88s-.08,0-.12,0a11,11,0,0,1-1.28,0c0-.06-.18-.06-.18,0-.35,0-.67-.08-1-.1,0-.06-.13,0-.18,0a13.87,13.87,0,0,1-6-1.84c0-.05,0-.1-.12-.1a9,9,0,0,1-1.28-.87A.33.33,0,0,0,6.09,44a4.13,4.13,0,0,1-.69-.63.63.63,0,0,0-.22-.21,7.31,7.31,0,0,1-1.66-2.91c0-.09,0-.16-.06-.19a4.17,4.17,0,0,1-.16-.84c0-.1,0-.24-.06-.25,0-.31-.05-.57,0-.91,0,0,0-.15,0-.15a14.55,14.55,0,0,1,3.55-9.42.77.77,0,0,0,.18-.18v0a.36.36,0,0,0,.15-.15c0-.09.14-.12.18-.21a.66.66,0,0,0,.19-.18,3.16,3.16,0,0,1,1-.76.21.21,0,0,1,.12,0v.18a5.84,5.84,0,0,1-1.06,1.94.23.23,0,0,0-.12.12c-1,1.46-2.25,2.67-2.4,5,0,0,0,.15,0,.15a3.15,3.15,0,0,1,.09.36c.12.07.2-.11.28-.18s.12-.14.18-.21a32,32,0,0,1,2.82-4.25.62.62,0,0,0,.18-.18c.09-.21.28-.32.39-.51a.66.66,0,0,0,.18-.19v0A.39.39,0,0,0,9.3,29c0-.07.1-.08.13-.15a.54.54,0,0,0,.15-.15,17.84,17.84,0,0,1,1.36-1.39.55.55,0,0,0,.18-.19.2.2,0,0,1,.09-.09.88.88,0,0,0,.22-.21c.15-.13.29-.27.45-.39a.34.34,0,0,0,.12-.12c.12-.07.17-.2.31-.25a.77.77,0,0,0,.18-.18c.27-.19.49-.44.78-.61a.22.22,0,0,0,.13-.12c.23-.14.41-.35.66-.48,0,0,0,0,.06,0a8,8,0,0,0,1.91.91,1.47,1.47,0,0,1-.48.33s-.12,0-.12.09c-.19.11-.35.24-.55.34,0,0-.11,0-.12.09-.38.26-.75.54-1.15.78a.22.22,0,0,0-.12.13c-.71.49-1.35,1.05-2,1.57a.66.66,0,0,0-.19.18h0a.88.88,0,0,0-.21.22l-1,.87a1.44,1.44,0,0,0-.27.28c-.21.19-.42.39-.61.6a.34.34,0,0,0-.12.12,8.14,8.14,0,0,0-2,4.79c-.06,0,0,.13,0,.18v.1c0,.05,0,.17,0,.18a5.14,5.14,0,0,0,1.85,3.51.23.23,0,0,0,.12.12c1.28,1.18,3.27,1.65,5.52,1.85,0,.07.15,0,.21,0a2.4,2.4,0,0,1,.55,0c.2,1.71,1.39,2.43,2.81,2.91-.26.07-.62,0-.69.31a1.39,1.39,0,0,0,.66.21c0,.06.11,0,.16,0Z" transform="translate(-1.94 -3.36)"/><path class="cls-2" d="M18.09,41.76c0,.49.08.93.06,1.46a1.29,1.29,0,0,1-1.21-1.31C17.29,41.83,17.73,41.83,18.09,41.76Z" transform="translate(-1.94 -3.36)"/><path class="cls-2" d="M18,22.15c0,.85.19,2-.51,2-.53,0-1-.72-1.4-.85A11.66,11.66,0,0,1,18,22.15Z" transform="translate(-1.94 -3.36)"/><text class="cls-3" transform="translate(40.3 21.47) scale(1.07 1)">中国（北京）国际贸易单一窗口</text><text class="cls-4" transform="translate(39.3 39.99)">China(BeiJing)International<tspan class="cls-5" x="170.77" y="0"> </tspan><tspan class="cls-6" x="174.47" y="0">T</tspan><tspan class="cls-7" x="182.57" y="0">rade Single Window</tspan></text></svg>